<svg version="1.1" xmlns="http://www.w3.org/2000/svg" viewBox="0 0 1019.6217297525075 824.5454563293774" width="2039.243459505015" height="1649.0909126587549">
  <!-- svg-source:excalidraw -->
  
  <defs>
    <style class="style-fonts">
      @font-face {
        font-family: "Virgil";
        src: url("https://excalidraw.com/Virgil.woff2");
      }
      @font-face {
        font-family: "Cascadia";
        src: url("https://excalidraw.com/Cascadia.woff2");
      }
      @font-face {
        font-family: "Assistant";
        src: url("https://excalidraw.com/Assistant-Regular.woff2");
      }
    </style>
    
  </defs>
  <rect x="0" y="0" width="1019.6217297525075" height="824.5454563293774" fill="#ffffff"></rect><g stroke-linecap="round" transform="translate(23.864674752507426 259.2727281646887) rotate(0 130.5 49)"><path d="M5.87 6.42 C5.87 6.42, 5.87 6.42, 5.87 6.42 M5.87 6.42 C5.87 6.42, 5.87 6.42, 5.87 6.42 M3.37 21.48 C9.83 15.47, 14.3 10.81, 17.81 4.88 M3.37 21.48 C7.93 17.31, 10.21 11.6, 17.81 4.88 M3.51 33.52 C10.25 24.65, 14.77 17.89, 29.09 4.09 M3.51 33.52 C9.48 26, 18.01 16.97, 29.09 4.09 M3.64 45.57 C17.36 28.37, 33 11.36, 39.72 4.06 M3.64 45.57 C12.67 34.71, 23.78 22.78, 39.72 4.06 M3.12 58.36 C15.85 41.51, 30.07 27.74, 50.35 4.02 M3.12 58.36 C13.58 45.09, 27.33 31.06, 50.35 4.02 M3.25 70.4 C23.54 45.29, 46.15 18.71, 60.98 3.99 M3.25 70.4 C19.82 51.22, 36.89 32.92, 60.98 3.99 M3.38 82.44 C25.33 54.23, 50.65 28.7, 71.61 3.95 M3.38 82.44 C25.57 57.04, 48.16 33.31, 71.61 3.95 M6.8 90.71 C30.55 65.66, 52.39 38.45, 82.24 3.92 M6.8 90.71 C34.59 59.15, 62.55 27.05, 82.24 3.92 M12.18 96.71 C34.9 72.51, 59.35 43.93, 92.87 3.88 M12.18 96.71 C30.71 76.58, 47.91 56.06, 92.87 3.88 M18.87 101.21 C52.47 62.36, 82.71 26.15, 103.5 3.85 M18.87 101.21 C49.96 65.6, 82.03 30.79, 103.5 3.85 M28.85 101.93 C57.78 69.04, 85.77 37.45, 114.13 3.81 M28.85 101.93 C57.16 69.86, 84.55 38.54, 114.13 3.81 M39.48 101.89 C58.97 75.94, 80.8 55, 124.76 3.78 M39.48 101.89 C68.3 65.53, 99.75 31.55, 124.76 3.78 M50.11 101.86 C73.23 76.14, 95.21 47.76, 135.39 3.75 M50.11 101.86 C83.47 63.9, 116.29 23.68, 135.39 3.75 M60.74 101.82 C84.58 75.7, 110.18 45.86, 146.02 3.71 M60.74 101.82 C78.82 82.19, 96.16 61.43, 146.02 3.71 M71.37 101.79 C99.7 70.18, 124.67 40.02, 156.65 3.68 M71.37 101.79 C92.31 78.89, 111.1 55.95, 156.65 3.68 M82 101.75 C106.92 75.23, 131.13 46.41, 166.63 4.4 M82 101.75 C100.46 80.48, 119.81 60.96, 166.63 4.4 M92.63 101.72 C111.88 79.08, 130.75 57.09, 177.26 4.36 M92.63 101.72 C112.17 79.81, 131.89 57.82, 177.26 4.36 M103.26 101.69 C122.78 79.86, 139.45 61.24, 187.89 4.33 M103.26 101.69 C127.96 73.81, 152.12 47.07, 187.89 4.33 M113.89 101.65 C144.92 63.41, 176.99 28.43, 198.52 4.29 M113.89 101.65 C146.72 63.86, 180.03 25.62, 198.52 4.29 M124.52 101.62 C144.24 79.47, 165.52 53.91, 209.15 4.26 M124.52 101.62 C152.76 68.77, 179.95 36.97, 209.15 4.26 M135.15 101.58 C164.68 70.33, 192.19 37.94, 219.78 4.22 M135.15 101.58 C164.54 68.71, 192.67 34.27, 219.78 4.22 M145.78 101.55 C171.91 72.27, 198.44 40.82, 230.41 4.19 M145.78 101.55 C169.41 72.57, 194.51 43.14, 230.41 4.19 M156.41 101.51 C173.14 80.82, 191.24 57.88, 241.04 4.16 M156.41 101.51 C184.14 69.31, 212.84 38.17, 241.04 4.16 M167.04 101.48 C196.98 65.84, 228.6 29.18, 251.01 4.88 M167.04 101.48 C194.33 72.01, 218.59 43.19, 251.01 4.88 M177.01 102.2 C204.36 68.2, 235.74 32.03, 258.36 8.61 M177.01 102.2 C208.28 66.06, 240.7 28.91, 258.36 8.61 M187.64 102.16 C209.22 76.08, 233.79 46.21, 262.43 16.13 M187.64 102.16 C213.07 74.06, 235.91 45.9, 262.43 16.13 M198.27 102.13 C217.56 76.43, 239.52 54.1, 266.5 23.64 M198.27 102.13 C224.46 71.85, 251.93 40.41, 266.5 23.64 M208.9 102.1 C223.61 82.05, 240.36 64.04, 266.64 35.68 M208.9 102.1 C227.05 81.34, 246.13 59.01, 266.64 35.68 M219.53 102.06 C235.27 82.51, 250.83 65.63, 266.77 47.72 M219.53 102.06 C229.31 90.29, 240.69 78.12, 266.77 47.72 M230.16 102.03 C241.57 86.97, 255.43 73.42, 266.9 59.76 M230.16 102.03 C240.36 90.22, 249.75 79.2, 266.9 59.76 M240.79 101.99 C247.34 94.27, 257.78 83.17, 263.75 75.58 M240.79 101.99 C248.18 92.34, 255.48 84.89, 263.75 75.58" stroke="#f3f0ff" stroke-width="1" fill="none"></path><path d="M24.5 0 C101.11 2.87, 178.45 1.13, 236.5 0 M24.5 0 C87.13 -0.01, 151.04 0.9, 236.5 0 M236.5 0 C254.49 -0.76, 262.42 7.65, 261 24.5 M236.5 0 C252.41 -2.28, 262.74 7.91, 261 24.5 M261 24.5 C261.58 44.94, 260.56 63.83, 261 73.5 M261 24.5 C260.36 34.36, 261.59 44.63, 261 73.5 M261 73.5 C259.08 90.96, 254.48 98.72, 236.5 98 M261 73.5 C258.79 89.72, 254.89 97.07, 236.5 98 M236.5 98 C181.3 99.88, 125.87 97.85, 24.5 98 M236.5 98 C166.16 97.52, 96.58 98.13, 24.5 98 M24.5 98 C8.52 98.52, -0.59 87.84, 0 73.5 M24.5 98 C8.35 95.97, 1.94 91.9, 0 73.5 M0 73.5 C0.27 55.34, 1.3 34.98, 0 24.5 M0 73.5 C0.52 62.29, -0.76 51.06, 0 24.5 M0 24.5 C-1.78 6.25, 7.44 -0.05, 24.5 0 M0 24.5 C-0.3 7.1, 6.87 0.72, 24.5 0" stroke="#1e1e1e" stroke-width="2" fill="none"></path></g><g transform="translate(66.47404975250743 296.2727281646887) rotate(0 87.890625 12)"><text x="87.890625" y="0" font-family="Cascadia, Segoe UI Emoji" font-size="20px" fill="#1e1e1e" text-anchor="middle" style="white-space: pre;" direction="ltr" dominant-baseline="text-before-edge">Compilation Run</text></g><g stroke-linecap="round"><g transform="translate(289.2803897877359 306.2727281646887) rotate(0 37.79214248238577 -0.5)"><path d="M0.94 -1.14 C13.34 -1.27, 62.53 0.01, 74.86 0 M-0.02 0.87 C12.73 0.37, 64.88 -1.45, 77.18 -1.6" stroke="#1e1e1e" stroke-width="2" fill="none"></path></g><g transform="translate(289.2803897877359 306.2727281646887) rotate(0 37.79214248238577 -0.5)"><path d="M53.92 7.55 C59.82 3.06, 71.25 0.08, 77.18 -1.6 M53.92 7.55 C60.77 5.78, 67.48 1.8, 77.18 -1.6" stroke="#1e1e1e" stroke-width="2" fill="none"></path></g><g transform="translate(289.2803897877359 306.2727281646887) rotate(0 37.79214248238577 -0.5)"><path d="M53.48 -9.55 C59.63 -8.26, 71.21 -5.48, 77.18 -1.6 M53.48 -9.55 C60.62 -6.5, 67.45 -5.67, 77.18 -1.6" stroke="#1e1e1e" stroke-width="2" fill="none"></path></g></g><mask></mask><g stroke-linecap="round" transform="translate(20.107619999999997 10) rotate(0 375.75705475250743 94.7727281646887)"><path d="M0 0 C253.21 0, 506.42 0, 751.51 0 M0 0 C288.12 0, 576.24 0, 751.51 0 M751.51 0 C751.51 39.24, 751.51 78.48, 751.51 189.55 M751.51 0 C751.51 65.12, 751.51 130.24, 751.51 189.55 M751.51 189.55 C574.79 189.55, 398.06 189.55, 0 189.55 M751.51 189.55 C492.2 189.55, 232.88 189.55, 0 189.55 M0 189.55 C0 118.59, 0 47.64, 0 0 M0 189.55 C0 126.06, 0 62.57, 0 0" stroke="#2b8a3e" stroke-width="2" fill="none"></path></g><g transform="translate(69.16049623042431 18.973304712413892) rotate(0 48.24994659423828 12.5)"><text x="0" y="0" font-family="Virgil, Segoe UI Emoji" font-size="20px" fill="#000000" text-anchor="start" style="white-space: pre;" direction="ltr" dominant-baseline="text-before-edge">MyProfiler</text></g><g stroke-linecap="round" transform="translate(20.445357185840976 10.211462851405713) rotate(0 19.81217082503025 21.261841861008104)"><path d="M0 0 C0 0, 0 0, 0 0 M0 0 C0 0, 0 0, 0 0 M0.13 12.04 C2.92 8.83, 5.72 5.62, 10.63 -0.03 M0.13 12.04 C3.27 8.43, 6.41 4.81, 10.63 -0.03 M0.27 24.08 C7.98 15.21, 15.69 6.34, 21.26 -0.07 M0.27 24.08 C5.08 18.54, 9.9 13, 21.26 -0.07 M-0.26 36.88 C6.85 28.7, 13.96 20.52, 31.89 -0.1 M-0.26 36.88 C7.92 27.47, 16.1 18.06, 31.89 -0.1 M5.12 42.88 C13.2 33.59, 21.28 24.3, 39.9 2.88 M5.12 42.88 C12.48 34.42, 19.84 25.95, 39.9 2.88 M15.76 42.85 C22.44 35.16, 29.12 27.47, 39.37 15.68 M15.76 42.85 C24.02 33.34, 32.28 23.83, 39.37 15.68 M26.39 42.81 C30.71 37.84, 35.03 32.86, 39.51 27.72 M26.39 42.81 C31.41 37.03, 36.44 31.24, 39.51 27.72 M37.02 42.78 C37.8 41.87, 38.59 40.97, 39.64 39.76 M37.02 42.78 C37.66 42.04, 38.29 41.31, 39.64 39.76" stroke="#e6fcf5" stroke-width="1" fill="none"></path><path d="M0 0 C10.61 0, 21.22 0, 39.62 0 M0 0 C12.01 0, 24.01 0, 39.62 0 M39.62 0 C39.62 15.34, 39.62 30.69, 39.62 42.52 M39.62 0 C39.62 9.44, 39.62 18.88, 39.62 42.52 M39.62 42.52 C29.75 42.52, 19.88 42.52, 0 42.52 M39.62 42.52 C25.06 42.52, 10.49 42.52, 0 42.52 M0 42.52 C0 33.82, 0 25.12, 0 0 M0 42.52 C0 33.38, 0 24.23, 0 0" stroke="#2b8a3e" stroke-width="2" fill="none"></path></g><g transform="translate(28.538778010871283 19.473304712413835) rotate(0 11.71875 12)"><text x="11.71875" y="0" font-family="Cascadia, Segoe UI Emoji" font-size="20px" fill="#2b8a3e" text-anchor="middle" style="white-space: pre;" direction="ltr" dominant-baseline="text-before-edge">C#</text></g><g transform="translate(30.864674752507426 83.27272816468871) rotate(0 363.28125 48)"><text x="0" y="0" font-family="Cascadia, Segoe UI Emoji" font-size="20px" fill="#1e1e1e" text-anchor="start" style="white-space: pre;" direction="ltr" dominant-baseline="text-before-edge">[ICorProfilerCallback("d59fd68e-ff3d-4cac-9e43-eb41ca2921a9")]</text><text x="0" y="24" font-family="Cascadia, Segoe UI Emoji" font-size="20px" fill="#1e1e1e" text-anchor="start" style="white-space: pre;" direction="ltr" dominant-baseline="text-before-edge">public class MyProfiler: CorProfilerCallback2</text><text x="0" y="48" font-family="Cascadia, Segoe UI Emoji" font-size="20px" fill="#1e1e1e" text-anchor="start" style="white-space: pre;" direction="ltr" dominant-baseline="text-before-edge">{</text><text x="0" y="72" font-family="Cascadia, Segoe UI Emoji" font-size="20px" fill="#1e1e1e" text-anchor="start" style="white-space: pre;" direction="ltr" dominant-baseline="text-before-edge">}</text></g><g stroke-linecap="round"><g transform="translate(157.86467475250743 204.27272816468871) rotate(0 -1.5 28.5)"><path d="M-0.24 0.12 C-0.77 9.37, -3.59 46.6, -3.96 55.98 M-1.82 -0.87 C-1.92 8.45, -1.57 47.27, -1.76 56.98" stroke="#1e1e1e" stroke-width="2" fill="none"></path></g><g transform="translate(157.86467475250743 204.27272816468871) rotate(0 -1.5 28.5)"><path d="M-10.23 33.46 C-7.93 37.45, -7.82 45.57, -1.76 56.98 M-10.23 33.46 C-8.47 39.8, -6.76 44.72, -1.76 56.98" stroke="#1e1e1e" stroke-width="2" fill="none"></path></g><g transform="translate(157.86467475250743 204.27272816468871) rotate(0 -1.5 28.5)"><path d="M6.87 33.51 C5.11 37.46, 1.16 45.56, -1.76 56.98 M6.87 33.51 C4.39 39.76, 1.85 44.67, -1.76 56.98" stroke="#1e1e1e" stroke-width="2" fill="none"></path></g></g><mask></mask><g stroke-linecap="round" transform="translate(366.4651877525074 255.6751381646887) rotate(0 130.5 49)"><path d="M5.87 6.42 C5.87 6.42, 5.87 6.42, 5.87 6.42 M5.87 6.42 C5.87 6.42, 5.87 6.42, 5.87 6.42 M3.37 21.48 C5.72 15.46, 9.77 10.99, 17.81 4.88 M3.37 21.48 C7.8 15.34, 13.01 9.66, 17.81 4.88 M3.51 33.52 C10.45 25.42, 19.77 13.57, 29.09 4.09 M3.51 33.52 C8.8 26.33, 15.37 20.64, 29.09 4.09 M3.64 45.57 C12.53 33.23, 24.39 21.56, 39.72 4.06 M3.64 45.57 C14.42 33.3, 25.19 19, 39.72 4.06 M3.12 58.36 C15.15 43.93, 28.77 28.46, 50.35 4.02 M3.12 58.36 C19.96 38.59, 35.97 18.49, 50.35 4.02 M3.25 70.4 C27.76 45.97, 50.24 19.38, 60.98 3.99 M3.25 70.4 C18.6 54.22, 32.06 36.59, 60.98 3.99 M3.38 82.44 C20.98 62.37, 37.74 43.44, 71.61 3.95 M3.38 82.44 C24.28 60.46, 42.96 37.57, 71.61 3.95 M6.8 90.71 C32.95 63.22, 54.96 36.3, 82.24 3.92 M6.8 90.71 C29.2 65.78, 52.19 38.41, 82.24 3.92 M12.18 96.71 C35.24 71.99, 55.74 45.39, 92.87 3.88 M12.18 96.71 C39.1 65.79, 64.46 36.17, 92.87 3.88 M18.87 101.21 C51.34 61.51, 83.9 25.55, 103.5 3.85 M18.87 101.21 C49.24 65.21, 81.28 28.75, 103.5 3.85 M28.85 101.93 C63.76 62.4, 97.99 23.76, 114.13 3.81 M28.85 101.93 C48.11 79.86, 67.14 56.45, 114.13 3.81 M39.48 101.89 C63.97 70.68, 90.29 42.37, 124.76 3.78 M39.48 101.89 C62.47 75.64, 86.65 50.93, 124.76 3.78 M50.11 101.86 C76.59 72.46, 102.98 46.51, 135.39 3.75 M50.11 101.86 C72.92 74.64, 97.13 47.23, 135.39 3.75 M60.74 101.82 C92.98 67.58, 121.9 35.41, 146.02 3.71 M60.74 101.82 C95.08 62.66, 128.27 24.51, 146.02 3.71 M71.37 101.79 C93.87 76.2, 117.17 47.12, 156.65 3.68 M71.37 101.79 C104.59 63.67, 136.84 24.49, 156.65 3.68 M82 101.75 C113.16 63.05, 148.18 28.56, 166.63 4.4 M82 101.75 C99.07 79.64, 118.54 58.18, 166.63 4.4 M92.63 101.72 C116.01 73.94, 142.09 42.91, 177.26 4.36 M92.63 101.72 C115.25 78.28, 136.34 53.09, 177.26 4.36 M103.26 101.69 C125.99 75.83, 151.92 46.4, 187.89 4.33 M103.26 101.69 C124.08 80, 142.54 56.88, 187.89 4.33 M113.89 101.65 C143.63 65.37, 173.81 32.25, 198.52 4.29 M113.89 101.65 C143.62 66.53, 174.76 33.25, 198.52 4.29 M124.52 101.62 C147.93 76.51, 169.6 50.51, 209.15 4.26 M124.52 101.62 C158.29 63.4, 190.32 24.08, 209.15 4.26 M135.15 101.58 C159.18 75.22, 183.09 47.27, 219.78 4.22 M135.15 101.58 C165.11 66.59, 194.71 31.62, 219.78 4.22 M145.78 101.55 C178.32 62.45, 213.91 25.96, 230.41 4.19 M145.78 101.55 C167.77 76.33, 187.79 53.23, 230.41 4.19 M156.41 101.51 C182.8 74.17, 206.19 45.27, 241.04 4.16 M156.41 101.51 C183.14 70.73, 210.72 39.43, 241.04 4.16 M167.04 101.48 C188.35 77.86, 208.97 51, 251.01 4.88 M167.04 101.48 C188.19 78.45, 208.05 56.12, 251.01 4.88 M177.01 102.2 C204.22 74.29, 228.34 41.76, 258.36 8.61 M177.01 102.2 C200.71 73.65, 225.29 46.85, 258.36 8.61 M187.64 102.16 C209.74 80.33, 227.1 55.31, 262.43 16.13 M187.64 102.16 C202.08 85.57, 218.46 67.23, 262.43 16.13 M198.27 102.13 C218.04 80.39, 236.9 55.96, 266.5 23.64 M198.27 102.13 C219.33 75.82, 243.68 51.31, 266.5 23.64 M208.9 102.1 C219.42 86.41, 232.67 72.45, 266.64 35.68 M208.9 102.1 C223.03 83.78, 238.63 68.44, 266.64 35.68 M219.53 102.06 C238.29 82.74, 256.34 59.44, 266.77 47.72 M219.53 102.06 C231.46 89.88, 241.92 76.81, 266.77 47.72 M230.16 102.03 C239.07 91, 249.13 79.39, 266.9 59.76 M230.16 102.03 C240.79 88.87, 252.53 75.58, 266.9 59.76 M240.79 101.99 C251.08 93.23, 256.85 83.63, 263.75 75.58 M240.79 101.99 C246.95 95.86, 250.47 89.37, 263.75 75.58" stroke="#f3f0ff" stroke-width="1" fill="none"></path><path d="M24.5 0 C97.42 -1.12, 171.63 0.61, 236.5 0 M24.5 0 C76.7 0.64, 127.39 0.73, 236.5 0 M236.5 0 C251.04 0.57, 262.28 9.37, 261 24.5 M236.5 0 C253.46 0.97, 261.08 8.04, 261 24.5 M261 24.5 C260.98 38.43, 261.53 49.79, 261 73.5 M261 24.5 C261.51 35.44, 260.49 45.65, 261 73.5 M261 73.5 C262.72 90.89, 252.79 99.55, 236.5 98 M261 73.5 C262.87 90.6, 253.45 97.33, 236.5 98 M236.5 98 C187.81 95.87, 138.32 96.81, 24.5 98 M236.5 98 C176 97.68, 113.5 98.72, 24.5 98 M24.5 98 C7.79 96.63, 1.73 89.53, 0 73.5 M24.5 98 C8.39 95.82, 1.68 89.34, 0 73.5 M0 73.5 C0.97 62.19, -1.59 48.43, 0 24.5 M0 73.5 C0 56.23, 0.46 38.76, 0 24.5 M0 24.5 C-0.29 7.21, 8.37 1.16, 24.5 0 M0 24.5 C2.23 9.5, 9.28 -0.57, 24.5 0" stroke="#1e1e1e" stroke-width="2" fill="none"></path></g><g transform="translate(403.2151877525074 292.6751381646887) rotate(0 93.75 12)"><text x="93.75" y="0" font-family="Cascadia, Segoe UI Emoji" font-size="20px" fill="#1e1e1e" text-anchor="middle" style="white-space: pre;" direction="ltr" dominant-baseline="text-before-edge">Source Generator</text></g><g stroke-linecap="round" transform="translate(731.10762 223.5) rotate(0 139.25705475250743 72.27272816468871)"><path d="M0 0 C74.31 0, 148.63 0, 278.51 0 M0 0 C61.79 0, 123.58 0, 278.51 0 M278.51 0 C278.51 51.94, 278.51 103.89, 278.51 144.55 M278.51 0 C278.51 31.82, 278.51 63.64, 278.51 144.55 M278.51 144.55 C192.35 144.55, 106.18 144.55, 0 144.55 M278.51 144.55 C206.24 144.55, 133.97 144.55, 0 144.55 M0 144.55 C0 108.8, 0 73.06, 0 0 M0 144.55 C0 94.61, 0 44.67, 0 0" stroke="#2b8a3e" stroke-width="2" fill="none"></path></g><g transform="translate(780.1604962304243 232.4733047124139) rotate(0 91.69921875 11.5)"><text x="0" y="0" font-family="Helvetica, Segoe UI Emoji" font-size="20px" fill="#000000" text-anchor="start" style="white-space: pre;" direction="ltr" dominant-baseline="text-before-edge">DllEntryPointExports</text></g><g stroke-linecap="round" transform="translate(731.445357185841 223.7114628514057) rotate(0 19.812170825030307 21.261841861008108)"><path d="M0 0 C0 0, 0 0, 0 0 M0 0 C0 0, 0 0, 0 0 M0.13 12.04 C3.7 7.93, 7.27 3.83, 10.63 -0.03 M0.13 12.04 C3.49 8.18, 6.85 4.31, 10.63 -0.03 M0.27 24.08 C5.77 17.75, 11.27 11.42, 21.26 -0.07 M0.27 24.08 C6.09 17.38, 11.92 10.68, 21.26 -0.07 M-0.26 36.88 C11.03 23.9, 22.31 10.92, 31.89 -0.1 M-0.26 36.88 C12.51 22.19, 25.29 7.49, 31.89 -0.1 M5.12 42.88 C15.51 30.94, 25.89 19, 39.9 2.88 M5.12 42.88 C16.1 30.25, 27.08 17.62, 39.9 2.88 M15.76 42.85 C23.48 33.96, 31.2 25.08, 39.37 15.68 M15.76 42.85 C24.68 32.58, 33.61 22.31, 39.37 15.68 M26.39 42.81 C30.14 38.5, 33.89 34.18, 39.51 27.72 M26.39 42.81 C31.51 36.92, 36.64 31.02, 39.51 27.72 M37.02 42.78 C37.67 42.03, 38.32 41.28, 39.64 39.76 M37.02 42.78 C37.74 41.94, 38.46 41.11, 39.64 39.76" stroke="#e6fcf5" stroke-width="1" fill="none"></path><path d="M0 0 C13.38 0, 26.75 0, 39.62 0 M0 0 C8.34 0, 16.67 0, 39.62 0 M39.62 0 C39.62 9.41, 39.62 18.82, 39.62 42.52 M39.62 0 C39.62 9.17, 39.62 18.35, 39.62 42.52 M39.62 42.52 C24.66 42.52, 9.7 42.52, 0 42.52 M39.62 42.52 C28.81 42.52, 18 42.52, 0 42.52 M0 42.52 C0 25.53, 0 8.53, 0 0 M0 42.52 C0 30.99, 0 19.45, 0 0" stroke="#2b8a3e" stroke-width="2" fill="none"></path></g><g transform="translate(739.5387780108713 232.9733047124138) rotate(0 11.71875 12)"><text x="11.71875" y="0" font-family="Cascadia, Segoe UI Emoji" font-size="20px" fill="#2f9e44" text-anchor="middle" style="white-space: pre;" direction="ltr" dominant-baseline="text-before-edge">C#</text></g><g transform="translate(742.8646747525074 280.7727281646887) rotate(0 99.609375 48)"><text x="0" y="0" font-family="Cascadia, Segoe UI Emoji" font-size="20px" fill="#1e1e1e" text-anchor="start" style="white-space: pre;" direction="ltr" dominant-baseline="text-before-edge">DllGetClassObject</text><text x="0" y="24" font-family="Cascadia, Segoe UI Emoji" font-size="20px" fill="#1e1e1e" text-anchor="start" style="white-space: pre;" direction="ltr" dominant-baseline="text-before-edge">DllCanUnloadNow</text><text x="0" y="48" font-family="Cascadia, Segoe UI Emoji" font-size="20px" fill="#1e1e1e" text-anchor="start" style="white-space: pre;" direction="ltr" dominant-baseline="text-before-edge">DllMain</text><text x="0" y="72" font-family="Cascadia, Segoe UI Emoji" font-size="20px" fill="#1e1e1e" text-anchor="start" style="white-space: pre;" direction="ltr" dominant-baseline="text-before-edge"></text></g><g stroke-linecap="round"><g transform="translate(626.8646747525074 301.2727281646887) rotate(0 53 0.5)"><path d="M0.91 0.72 C18.47 0.98, 88.26 0.16, 105.57 0.35 M-0.07 0.06 C17.28 0.57, 86.54 1.56, 104.4 1.54" stroke="#1e1e1e" stroke-width="2" fill="none"></path></g><g transform="translate(626.8646747525074 301.2727281646887) rotate(0 53 0.5)"><path d="M80.84 9.9 C89.63 6.35, 94.83 2.42, 104.4 1.54 M80.84 9.9 C89.84 7.8, 97.83 3.37, 104.4 1.54" stroke="#1e1e1e" stroke-width="2" fill="none"></path></g><g transform="translate(626.8646747525074 301.2727281646887) rotate(0 53 0.5)"><path d="M80.98 -7.2 C89.55 -5.31, 94.71 -3.79, 104.4 1.54 M80.98 -7.2 C89.94 -2.96, 97.88 -1.04, 104.4 1.54" stroke="#1e1e1e" stroke-width="2" fill="none"></path></g></g><mask></mask><g stroke-linecap="round"><g transform="translate(851.8593141399031 369.2727281646887) rotate(0 -110.49731969369782 41)"><path d="M0.16 -0.83 C-3.72 12.11, 13.77 64.1, -23.13 78.08 C-60.04 92.06, -188.12 82.3, -221.27 83.07 M-1.21 1.35 C-5.28 14.46, 12.68 66.34, -24.15 79.66 C-60.98 92.98, -189.15 81.15, -222.18 81.29" stroke="#1e1e1e" stroke-width="2" fill="none"></path></g><g transform="translate(851.8593141399031 369.2727281646887) rotate(0 -110.49731969369782 41)"><path d="M-198.36 73.73 C-207.18 75.91, -213.13 78.04, -222.18 81.29 M-198.36 73.73 C-208.28 77.56, -216.36 78.91, -222.18 81.29" stroke="#1e1e1e" stroke-width="2" fill="none"></path></g><g transform="translate(851.8593141399031 369.2727281646887) rotate(0 -110.49731969369782 41)"><path d="M-199.07 90.81 C-207.73 87.64, -213.47 84.41, -222.18 81.29 M-199.07 90.81 C-208.57 87.99, -216.37 82.69, -222.18 81.29" stroke="#1e1e1e" stroke-width="2" fill="none"></path></g></g><mask></mask><g stroke-linecap="round" transform="translate(366.4651877525074 395.27272816468866) rotate(0 130.65632349999993 49)"><path d="M5.87 6.42 C5.87 6.42, 5.87 6.42, 5.87 6.42 M5.87 6.42 C5.87 6.42, 5.87 6.42, 5.87 6.42 M0.09 25.26 C10.52 15.52, 18.25 6.66, 21.74 0.35 M0.09 25.26 C7.79 15.66, 15.71 5.8, 21.74 0.35 M0.23 37.3 C9.36 28.42, 18.12 15.99, 32.37 0.32 M0.23 37.3 C8.66 27.56, 19.7 16.08, 32.37 0.32 M0.36 49.34 C9.02 39.29, 19.5 26.74, 43 0.28 M0.36 49.34 C17.98 30.2, 34.51 10.25, 43 0.28 M0.49 61.38 C16.78 43.6, 34.37 22.43, 53.63 0.25 M0.49 61.38 C14.43 43.84, 30.82 28.34, 53.63 0.25 M0.63 73.42 C19.5 52.62, 37.18 33.36, 64.26 0.21 M0.63 73.42 C20.04 50.26, 41.98 26.09, 64.26 0.21 M2.07 83.95 C26.28 54.65, 52.13 26.33, 74.89 0.18 M2.07 83.95 C21.59 60.45, 41.08 38.55, 74.89 0.18 M6.14 91.46 C33.98 61.02, 60.05 29.72, 85.52 0.14 M6.14 91.46 C32.89 61.99, 58.14 32.37, 85.52 0.14 M12.84 95.96 C33 73.33, 53.06 53.44, 96.15 0.11 M12.84 95.96 C45.5 60.06, 76.17 23.21, 96.15 0.11 M21.5 98.19 C42.37 74.95, 58.5 54.53, 106.78 0.08 M21.5 98.19 C41.01 74.92, 60.83 52.27, 106.78 0.08 M31.47 98.91 C57.18 70.51, 76.97 44.59, 117.41 0.04 M31.47 98.91 C64.59 60.97, 97.52 21.3, 117.41 0.04 M42.1 98.87 C59.38 78.43, 78.07 59.16, 128.04 0.01 M42.1 98.87 C59.88 78.45, 77.64 55.87, 128.04 0.01 M52.73 98.84 C75.58 72.05, 99.56 42.84, 138.67 -0.03 M52.73 98.84 C74.84 72.84, 98.24 46.75, 138.67 -0.03 M63.36 98.8 C92.07 64.88, 123.3 32.21, 149.3 -0.06 M63.36 98.8 C88.4 71.8, 112.62 42.04, 149.3 -0.06 M73.99 98.77 C103.66 62.44, 136.83 28.26, 159.94 -0.1 M73.99 98.77 C96.76 73.19, 119.69 47.78, 159.94 -0.1 M84.62 98.74 C114.75 60.98, 148.31 25.52, 170.57 -0.13 M84.62 98.74 C119.09 62.15, 151.22 22.83, 170.57 -0.13 M95.25 98.7 C117.98 70.36, 141 46.82, 181.2 -0.17 M95.25 98.7 C117.64 73.95, 138.2 50.35, 181.2 -0.17 M105.88 98.67 C129 74.12, 149.37 46.41, 191.83 -0.2 M105.88 98.67 C131.65 69.79, 156.6 41.01, 191.83 -0.2 M116.51 98.63 C142.57 67.8, 168.79 39.77, 202.46 -0.23 M116.51 98.63 C146.1 61.78, 176.77 26.01, 202.46 -0.23 M127.14 98.6 C142.99 79.17, 160.86 58.38, 213.09 -0.27 M127.14 98.6 C156.62 64.76, 185.55 33.3, 213.09 -0.27 M137.77 98.56 C172.29 60.99, 203.25 23.9, 223.06 0.45 M137.77 98.56 C165.7 65.6, 194.31 33, 223.06 0.45 M148.4 98.53 C167.16 79.95, 183.93 56.29, 233.69 0.42 M148.4 98.53 C172.62 71.12, 195.07 43.61, 233.69 0.42 M159.03 98.49 C190.43 65.02, 221.83 27.65, 243.66 1.14 M159.03 98.49 C189.04 63.1, 219.68 27.03, 243.66 1.14 M169.66 98.46 C200.33 61.19, 233.52 25.39, 251.67 4.12 M169.66 98.46 C187.76 78.28, 205.19 57.31, 251.67 4.12 M180.29 98.43 C208.11 66.67, 234.2 36.11, 257.05 10.12 M180.29 98.43 C203.62 72.57, 225.79 48.81, 257.05 10.12 M190.92 98.39 C219.39 65.53, 245.08 36.02, 261.12 17.64 M190.92 98.39 C211.83 74.67, 231.13 51.1, 261.12 17.64 M201.55 98.36 C212.68 84.64, 224.64 70.42, 261.25 29.68 M201.55 98.36 C226.07 71.65, 247.6 45.51, 261.25 29.68 M212.18 98.32 C223.41 84.96, 232.38 74.69, 261.39 41.72 M212.18 98.32 C230.61 76.95, 250.01 55.39, 261.39 41.72 M222.81 98.29 C237.98 81.02, 251.75 65.15, 261.52 53.76 M222.81 98.29 C237.2 82.97, 250.08 67.8, 261.52 53.76 M233.44 98.25 C245.08 86.51, 253.66 71.91, 261.65 65.8 M233.44 98.25 C239.76 92.14, 245.46 83.43, 261.65 65.8 M245.38 96.71 C249.33 94.19, 253.13 88.59, 260.47 79.35 M245.38 96.71 C251.02 90.54, 256.23 84.06, 260.47 79.35" stroke="#f3f0ff" stroke-width="1" fill="none"></path><path d="M24.5 0 C86.45 -0.41, 145.63 1.55, 236.81 0 M24.5 0 C95.8 0.11, 165.83 0.95, 236.81 0 M236.81 0 C251.83 1.66, 260.97 7.85, 261.31 24.5 M236.81 0 C254.46 -0.89, 263.17 9.77, 261.31 24.5 M261.31 24.5 C260.44 34.16, 260.79 46.94, 261.31 73.5 M261.31 24.5 C261.55 37.75, 261.22 50.05, 261.31 73.5 M261.31 73.5 C262.91 89.45, 252.84 99.95, 236.81 98 M261.31 73.5 C261.44 89.7, 254.85 97.67, 236.81 98 M236.81 98 C173.62 98.96, 109.26 98.05, 24.5 98 M236.81 98 C181.29 96.15, 127.46 96.25, 24.5 98 M24.5 98 C7.13 98.81, -1 90.21, 0 73.5 M24.5 98 C10.05 99.1, -1.62 89.92, 0 73.5 M0 73.5 C1.19 59.6, 0.56 46.3, 0 24.5 M0 73.5 C-0.41 56.57, 1.1 41.67, 0 24.5 M0 24.5 C-1.66 10.11, 10.05 -0.46, 24.5 0 M0 24.5 C-1.07 7.66, 10.1 -1.35, 24.5 0" stroke="#1e1e1e" stroke-width="2" fill="none"></path></g><g transform="translate(374.0746362525074 408.27272816468866) rotate(0 123.046875 36)"><text x="123.046875" y="0" font-family="Cascadia, Segoe UI Emoji" font-size="20px" fill="#1e1e1e" text-anchor="middle" style="white-space: pre;" direction="ltr" dominant-baseline="text-before-edge">Generated source code</text><text x="123.046875" y="24" font-family="Cascadia, Segoe UI Emoji" font-size="20px" fill="#1e1e1e" text-anchor="middle" style="white-space: pre;" direction="ltr" dominant-baseline="text-before-edge">added as input to </text><text x="123.046875" y="48" font-family="Cascadia, Segoe UI Emoji" font-size="20px" fill="#1e1e1e" text-anchor="middle" style="white-space: pre;" direction="ltr" dominant-baseline="text-before-edge">compilation</text></g><g stroke-linecap="round" transform="translate(28.25705475250743 395.2727281646887) rotate(0 130.5 49)"><path d="M5.87 6.42 C5.87 6.42, 5.87 6.42, 5.87 6.42 M5.87 6.42 C5.87 6.42, 5.87 6.42, 5.87 6.42 M3.37 21.48 C6.64 17.33, 12.1 11.29, 17.81 4.88 M3.37 21.48 C8.5 14.9, 15.83 8.61, 17.81 4.88 M3.51 33.52 C14.61 22.1, 21.78 10.98, 29.09 4.09 M3.51 33.52 C11.75 25.6, 19.46 15.74, 29.09 4.09 M3.64 45.57 C12.63 32.74, 25.36 21.74, 39.72 4.06 M3.64 45.57 C17.93 27.91, 31.87 12.78, 39.72 4.06 M3.12 58.36 C23.11 37.79, 38.15 17.06, 50.35 4.02 M3.12 58.36 C14.17 45.94, 25.59 33.02, 50.35 4.02 M3.25 70.4 C25.15 44.3, 45.13 22.78, 60.98 3.99 M3.25 70.4 C25.58 45.22, 48.18 18.68, 60.98 3.99 M3.38 82.44 C20.9 58.77, 40.42 39.02, 71.61 3.95 M3.38 82.44 C20.05 62.01, 37.48 42.24, 71.61 3.95 M6.8 90.71 C33.47 57.35, 66.02 21.19, 82.24 3.92 M6.8 90.71 C27.23 68.37, 45.61 47.62, 82.24 3.92 M12.18 96.71 C31.15 72.42, 52 48.48, 92.87 3.88 M12.18 96.71 C30.33 76.14, 46.44 55.96, 92.87 3.88 M18.87 101.21 C42.61 70.63, 69.13 43.09, 103.5 3.85 M18.87 101.21 C35.99 80.69, 55.51 59.7, 103.5 3.85 M28.85 101.93 C56.42 70.58, 88.42 37.1, 114.13 3.81 M28.85 101.93 C57.65 69.5, 86.23 36.63, 114.13 3.81 M39.48 101.89 C73.05 63.92, 106.29 26.87, 124.76 3.78 M39.48 101.89 C68.01 67.91, 96.01 36.48, 124.76 3.78 M50.11 101.86 C78.1 71.41, 101.79 40.94, 135.39 3.75 M50.11 101.86 C79.64 67.83, 109.15 33.79, 135.39 3.75 M60.74 101.82 C80.29 78.62, 102.78 54.59, 146.02 3.71 M60.74 101.82 C79.3 80.48, 96.68 60.74, 146.02 3.71 M71.37 101.79 C99.93 69.46, 126.66 34.8, 156.65 3.68 M71.37 101.79 C101.87 67.17, 132.77 33.11, 156.65 3.68 M82 101.75 C105.75 75.19, 124.61 51.07, 166.63 4.4 M82 101.75 C107.02 73.33, 130.21 45.4, 166.63 4.4 M92.63 101.72 C123.62 62.97, 158.6 25.63, 177.26 4.36 M92.63 101.72 C120.52 67.32, 151.05 33.77, 177.26 4.36 M103.26 101.69 C127.87 70.01, 154.24 40.07, 187.89 4.33 M103.26 101.69 C133.37 68.08, 160.82 35.96, 187.89 4.33 M113.89 101.65 C132.25 81.54, 148.48 59.89, 198.52 4.29 M113.89 101.65 C141.76 70.85, 168.25 39.51, 198.52 4.29 M124.52 101.62 C144.45 82.09, 158.91 58.84, 209.15 4.26 M124.52 101.62 C157.13 62.93, 189.7 25.1, 209.15 4.26 M135.15 101.58 C159.79 71.55, 186.62 38.95, 219.78 4.22 M135.15 101.58 C165.36 68.31, 193.52 35.66, 219.78 4.22 M145.78 101.55 C174.49 68.42, 199.34 40.11, 230.41 4.19 M145.78 101.55 C180.32 63.19, 212.79 23.89, 230.41 4.19 M156.41 101.51 C179.26 79.6, 200.03 54.98, 241.04 4.16 M156.41 101.51 C179.84 73.94, 203.69 47.04, 241.04 4.16 M167.04 101.48 C195.56 64.54, 229.63 32.21, 251.01 4.88 M167.04 101.48 C196.79 66.75, 227.42 31.94, 251.01 4.88 M177.01 102.2 C201.83 77.52, 222.23 51.8, 258.36 8.61 M177.01 102.2 C199.14 75.23, 223.02 50.11, 258.36 8.61 M187.64 102.16 C212.24 72.32, 239.59 41.84, 262.43 16.13 M187.64 102.16 C216.89 66.88, 246.69 33.68, 262.43 16.13 M198.27 102.13 C220.48 77.75, 243.01 52.3, 266.5 23.64 M198.27 102.13 C218.29 79.04, 240.24 54.24, 266.5 23.64 M208.9 102.1 C225.86 84.18, 238.84 66.55, 266.64 35.68 M208.9 102.1 C226.83 80.79, 243.64 61, 266.64 35.68 M219.53 102.06 C231.22 89.08, 243.55 75.14, 266.77 47.72 M219.53 102.06 C237.35 82.55, 255.68 61.26, 266.77 47.72 M230.16 102.03 C242.62 86.56, 259.09 70.61, 266.9 59.76 M230.16 102.03 C243.57 85.3, 257.91 70.02, 266.9 59.76 M240.79 101.99 C249.9 95.22, 257.35 85.57, 263.75 75.58 M240.79 101.99 C248.23 93.51, 254.79 85.5, 263.75 75.58" stroke="#f3f0ff" stroke-width="1" fill="none"></path><path d="M24.5 0 C74.31 1.15, 127.09 1.48, 236.5 0 M24.5 0 C90.68 -1.78, 156.87 -2.02, 236.5 0 M236.5 0 C252.32 1.64, 261.55 6.73, 261 24.5 M236.5 0 C252.38 -2.11, 262.7 6.32, 261 24.5 M261 24.5 C261.29 34.43, 260.45 44.24, 261 73.5 M261 24.5 C261.65 42.4, 260.67 61.14, 261 73.5 M261 73.5 C260.74 88.62, 251.73 99.51, 236.5 98 M261 73.5 C258.86 91.89, 254.35 100.14, 236.5 98 M236.5 98 C188.35 96.77, 142.89 98.15, 24.5 98 M236.5 98 C166.5 97.96, 96.61 98, 24.5 98 M24.5 98 C7.31 96.04, -1.53 89.76, 0 73.5 M24.5 98 C5.95 97.91, 2.03 88.27, 0 73.5 M0 73.5 C-1.99 59.07, -2.23 44.15, 0 24.5 M0 73.5 C-0.3 56.15, 0.54 39.27, 0 24.5 M0 24.5 C-1.48 7.58, 8.88 -0.19, 24.5 0 M0 24.5 C2.03 9.6, 8.66 -1.42, 24.5 0" stroke="#1e1e1e" stroke-width="2" fill="none"></path></g><g transform="translate(70.86642975250743 432.2727281646887) rotate(0 87.890625 12)"><text x="87.890625" y="0" font-family="Cascadia, Segoe UI Emoji" font-size="20px" fill="#1e1e1e" text-anchor="middle" style="white-space: pre;" direction="ltr" dominant-baseline="text-before-edge">AOT Compilation</text></g><g stroke-linecap="round"><g transform="translate(364.8646747525074 443.16161705357763) rotate(0 -39.5 0)"><path d="M0.1 -0.14 C-13.24 -0.14, -66.51 -0.54, -79.84 -0.54 M-1.3 -1.25 C-14.29 -1.05, -64.88 0.33, -77.57 0.71" stroke="#1e1e1e" stroke-width="2" fill="none"></path></g><g transform="translate(364.8646747525074 443.16161705357763) rotate(0 -39.5 0)"><path d="M-54.33 -8.5 C-61.98 -6.95, -70.06 -4.05, -77.57 0.71 M-54.33 -8.5 C-61.16 -6.66, -67.32 -2.49, -77.57 0.71" stroke="#1e1e1e" stroke-width="2" fill="none"></path></g><g transform="translate(364.8646747525074 443.16161705357763) rotate(0 -39.5 0)"><path d="M-53.84 8.59 C-61.58 4.71, -69.81 2.17, -77.57 0.71 M-53.84 8.59 C-60.97 5.58, -67.26 4.88, -77.57 0.71" stroke="#1e1e1e" stroke-width="2" fill="none"></path></g></g><mask></mask><g stroke-linecap="round" transform="translate(28.25705475250743 563.8103101646886) rotate(0 130.5 49)"><path d="M5.87 6.42 C5.87 6.42, 5.87 6.42, 5.87 6.42 M5.87 6.42 C5.87 6.42, 5.87 6.42, 5.87 6.42 M3.37 21.48 C7.09 14.29, 13.23 12.18, 17.81 4.88 M3.37 21.48 C9.08 16.6, 12.84 10.29, 17.81 4.88 M3.51 33.52 C10.37 25.45, 14.74 19.15, 29.09 4.09 M3.51 33.52 C14.7 21.98, 23.97 10.97, 29.09 4.09 M3.64 45.57 C9.36 36.06, 18.07 30.05, 39.72 4.06 M3.64 45.57 C11.99 34.92, 19.74 27.18, 39.72 4.06 M3.12 58.36 C16.52 45.71, 25.63 29.51, 50.35 4.02 M3.12 58.36 C16.84 44.65, 28.45 29.71, 50.35 4.02 M3.25 70.4 C23.55 48.71, 45.87 23.94, 60.98 3.99 M3.25 70.4 C22.37 46.97, 41.79 25.48, 60.98 3.99 M3.38 82.44 C24.1 59.05, 45.98 33.1, 71.61 3.95 M3.38 82.44 C21.73 60.14, 40.26 38.03, 71.61 3.95 M6.8 90.71 C24.36 69.41, 41.2 47.27, 82.24 3.92 M6.8 90.71 C23.46 70.77, 38.82 53, 82.24 3.92 M12.18 96.71 C31.21 71.29, 54.45 47.72, 92.87 3.88 M12.18 96.71 C39.45 66.07, 65.6 34.87, 92.87 3.88 M18.87 101.21 C38.63 78.83, 57.38 57.77, 103.5 3.85 M18.87 101.21 C39.48 76.22, 60.65 51.34, 103.5 3.85 M28.85 101.93 C46.51 82.9, 65.07 61.49, 114.13 3.81 M28.85 101.93 C56.53 69.56, 83.23 37.08, 114.13 3.81 M39.48 101.89 C58.38 79.27, 78.12 56.59, 124.76 3.78 M39.48 101.89 C59.31 77.55, 81.4 52.45, 124.76 3.78 M50.11 101.86 C81.43 67.76, 112.02 33.27, 135.39 3.75 M50.11 101.86 C76.35 69.34, 103.89 38.22, 135.39 3.75 M60.74 101.82 C86.46 71.02, 113.4 38.43, 146.02 3.71 M60.74 101.82 C85.8 72.76, 108.99 44.83, 146.02 3.71 M71.37 101.79 C102.05 64.89, 137.19 28, 156.65 3.68 M71.37 101.79 C105.4 63.22, 139.27 24.45, 156.65 3.68 M82 101.75 C106.21 73.64, 130.73 47.23, 166.63 4.4 M82 101.75 C102.81 80.39, 122.06 56.88, 166.63 4.4 M92.63 101.72 C116.79 74.73, 136.83 49.18, 177.26 4.36 M92.63 101.72 C123.84 64.5, 155.98 27.81, 177.26 4.36 M103.26 101.69 C123.18 77.14, 145.96 55.51, 187.89 4.33 M103.26 101.69 C123.03 78.86, 142.17 56.97, 187.89 4.33 M113.89 101.65 C137.57 74.18, 161.07 45.95, 198.52 4.29 M113.89 101.65 C140.27 72.12, 167.42 40.49, 198.52 4.29 M124.52 101.62 C148.72 72.73, 176.09 41.83, 209.15 4.26 M124.52 101.62 C143.9 78.63, 164.48 55.57, 209.15 4.26 M135.15 101.58 C167.59 63.08, 197.04 29.38, 219.78 4.22 M135.15 101.58 C152.5 81.95, 169.5 61.27, 219.78 4.22 M145.78 101.55 C168.24 77.73, 187.11 51.9, 230.41 4.19 M145.78 101.55 C167.81 75.42, 188.04 50.29, 230.41 4.19 M156.41 101.51 C176.24 81.77, 193.22 59.18, 241.04 4.16 M156.41 101.51 C180.05 73.95, 205.53 46.26, 241.04 4.16 M167.04 101.48 C185.56 79.77, 209.16 55.03, 251.01 4.88 M167.04 101.48 C193.31 71.69, 218.17 41.58, 251.01 4.88 M177.01 102.2 C199.19 74.26, 223.39 45.19, 258.36 8.61 M177.01 102.2 C202.99 72.37, 230.58 42.75, 258.36 8.61 M187.64 102.16 C217.34 69.63, 245.77 37.03, 262.43 16.13 M187.64 102.16 C209.82 76.21, 232.82 52.26, 262.43 16.13 M198.27 102.13 C218.26 82.23, 234.91 58.5, 266.5 23.64 M198.27 102.13 C219.97 79.04, 240.94 54.02, 266.5 23.64 M208.9 102.1 C225.36 82.69, 241.92 64.28, 266.64 35.68 M208.9 102.1 C225.51 81.87, 242.55 62.59, 266.64 35.68 M219.53 102.06 C232.64 87.16, 241.8 74.7, 266.77 47.72 M219.53 102.06 C236.72 82.53, 254.55 61.92, 266.77 47.72 M230.16 102.03 C243.37 87.49, 255.75 75.33, 266.9 59.76 M230.16 102.03 C240.66 91.2, 249.84 79.86, 266.9 59.76 M240.79 101.99 C247.66 96.11, 251.52 88.5, 263.75 75.58 M240.79 101.99 C248.92 94.11, 255.37 85.85, 263.75 75.58" stroke="#f3f0ff" stroke-width="1" fill="none"></path><path d="M24.5 0 C101.63 -2.86, 183.49 -1.86, 236.5 0 M24.5 0 C73.54 0.23, 121.81 -0.17, 236.5 0 M236.5 0 C251.9 1.93, 259.92 10.13, 261 24.5 M236.5 0 C250.72 0.83, 261.81 9.35, 261 24.5 M261 24.5 C260.47 43.63, 263.09 64.54, 261 73.5 M261 24.5 C261.46 35.49, 260.02 44.7, 261 73.5 M261 73.5 C261.81 88.97, 251.49 98.19, 236.5 98 M261 73.5 C263.04 90.94, 251.22 100.19, 236.5 98 M236.5 98 C182.81 99.15, 126.54 96.41, 24.5 98 M236.5 98 C191.95 97.12, 147.76 96.04, 24.5 98 M24.5 98 C8.86 97.03, 0.58 88.06, 0 73.5 M24.5 98 C8.19 96.22, -2.19 90.59, 0 73.5 M0 73.5 C-1.42 58.81, 1.47 46.66, 0 24.5 M0 73.5 C-0.54 61.03, -0.34 47.12, 0 24.5 M0 24.5 C-0.68 6.53, 9.66 -0.48, 24.5 0 M0 24.5 C-1.55 10, 8.78 -1.14, 24.5 0" stroke="#1e1e1e" stroke-width="2" fill="none"></path></g><g transform="translate(123.60080475250743 600.8103101646886) rotate(0 35.15625 12)"><text x="35.15625" y="0" font-family="Cascadia, Segoe UI Emoji" font-size="20px" fill="#1e1e1e" text-anchor="middle" style="white-space: pre;" direction="ltr" dominant-baseline="text-before-edge">Linker</text></g><g stroke-linecap="round"><g transform="translate(153.86467475250743 493.2727281646887) rotate(0 0.5 36.5)"><path d="M-1.15 0.45 C-1.19 12.39, -0.58 60.61, -0.13 72.82 M0.45 -0.36 C0.74 12.27, 1.89 62.25, 1.99 74.26" stroke="#1e1e1e" stroke-width="2" fill="none"></path></g><g transform="translate(153.86467475250743 493.2727281646887) rotate(0 0.5 36.5)"><path d="M-6.96 50.92 C-3.19 56.38, -1.46 66.43, 1.99 74.26 M-6.96 50.92 C-2.71 59.05, -0.63 68.22, 1.99 74.26" stroke="#1e1e1e" stroke-width="2" fill="none"></path></g><g transform="translate(153.86467475250743 493.2727281646887) rotate(0 0.5 36.5)"><path d="M10.14 50.63 C8.59 56.02, 5.01 66.16, 1.99 74.26 M10.14 50.63 C8.26 59.03, 4.2 68.31, 1.99 74.26" stroke="#1e1e1e" stroke-width="2" fill="none"></path></g></g><mask></mask><g stroke-linecap="round"><g transform="translate(361.8646747525074 619.4192068018289) rotate(0 -35.80381 0.4058382153793332)"><path d="M-1.13 -0.56 C-12.76 -0.56, -59.2 -0.16, -70.78 0.26" stroke="#1e1e1e" stroke-width="2.5" fill="none" stroke-dasharray="8 10"></path></g><g transform="translate(361.8646747525074 619.4192068018289) rotate(0 -35.80381 0.4058382153793332)"><path d="M-47.46 -8.76 C-53.47 -5.62, -58.56 -3.36, -70.78 0.26" stroke="#1e1e1e" stroke-width="2.5" fill="none"></path></g><g transform="translate(361.8646747525074 619.4192068018289) rotate(0 -35.80381 0.4058382153793332)"><path d="M-47.12 8.34 C-53.24 7.73, -58.41 6.25, -70.78 0.26" stroke="#1e1e1e" stroke-width="2.5" fill="none"></path></g></g><mask></mask><g stroke-linecap="round" transform="translate(365.10762 582) rotate(0 148.75705475250743 34.272728164688715)"><path d="M0 0 C0 0, 0 0, 0 0 M0 0 C0 0, 0 0, 0 0 M0.13 12.04 C2.96 8.79, 5.79 5.54, 10.63 -0.03 M0.13 12.04 C2.77 9.01, 5.41 5.97, 10.63 -0.03 M0.27 24.08 C7.56 15.69, 14.86 7.29, 21.26 -0.07 M0.27 24.08 C7.89 15.32, 15.51 6.55, 21.26 -0.07 M-0.26 36.88 C9.17 26.03, 18.6 15.19, 31.89 -0.1 M-0.26 36.88 C6.33 29.3, 12.91 21.73, 31.89 -0.1 M-0.12 48.92 C15.13 31.37, 30.39 13.82, 42.52 -0.14 M-0.12 48.92 C13.68 33.04, 27.48 17.16, 42.52 -0.14 M0.01 60.96 C13.68 45.23, 27.35 29.5, 53.15 -0.17 M0.01 60.96 C15.47 43.18, 30.93 25.39, 53.15 -0.17 M4.08 68.47 C26.16 43.08, 48.23 17.68, 63.78 -0.21 M4.08 68.47 C25.28 44.08, 46.49 19.69, 63.78 -0.21 M14.71 68.44 C28.54 52.53, 42.36 36.62, 74.41 -0.24 M14.71 68.44 C38.34 41.25, 61.97 14.07, 74.41 -0.24 M25.34 68.4 C45.31 45.43, 65.28 22.45, 85.04 -0.28 M25.34 68.4 C47.78 42.59, 70.21 16.78, 85.04 -0.28 M35.97 68.37 C49.25 53.09, 62.54 37.81, 95.67 -0.31 M35.97 68.37 C53.58 48.11, 71.19 27.85, 95.67 -0.31 M46.6 68.33 C63.83 48.51, 81.06 28.69, 106.3 -0.34 M46.6 68.33 C61.11 51.64, 75.62 34.95, 106.3 -0.34 M57.23 68.3 C73.29 49.82, 89.36 31.34, 116.27 0.38 M57.23 68.3 C78.06 44.33, 98.9 20.36, 116.27 0.38 M67.86 68.26 C82.9 50.96, 97.95 33.65, 126.91 0.34 M67.86 68.26 C82.82 51.05, 97.79 33.84, 126.91 0.34 M78.49 68.23 C99.66 43.88, 120.82 19.53, 137.54 0.31 M78.49 68.23 C91.66 53.08, 104.83 37.93, 137.54 0.31 M89.12 68.2 C109.28 45, 129.45 21.8, 148.17 0.27 M89.12 68.2 C103.44 51.73, 117.75 35.26, 148.17 0.27 M99.09 68.92 C116.75 48.61, 134.4 28.3, 158.8 0.24 M99.09 68.92 C119.87 45.01, 140.65 21.11, 158.8 0.24 M109.72 68.88 C124.25 52.17, 138.78 35.46, 169.43 0.2 M109.72 68.88 C126.73 49.32, 143.74 29.76, 169.43 0.2 M120.35 68.85 C134.31 52.79, 148.27 36.74, 180.06 0.17 M120.35 68.85 C135.86 51.01, 151.36 33.18, 180.06 0.17 M130.98 68.81 C151.32 45.42, 171.66 22.02, 190.69 0.13 M130.98 68.81 C154.52 41.74, 178.06 14.66, 190.69 0.13 M141.61 68.78 C163.02 44.15, 184.43 19.53, 201.32 0.1 M141.61 68.78 C158.24 49.65, 174.87 30.52, 201.32 0.1 M152.24 68.74 C176.12 41.28, 200 13.81, 211.95 0.06 M152.24 68.74 C165.58 53.4, 178.92 38.05, 211.95 0.06 M162.87 68.71 C186.27 41.79, 209.67 14.87, 222.58 0.03 M162.87 68.71 C175.67 53.98, 188.47 39.26, 222.58 0.03 M173.5 68.67 C189.83 49.9, 206.15 31.12, 233.21 0 M173.5 68.67 C195.25 43.66, 216.99 18.65, 233.21 0 M184.13 68.64 C201.55 48.61, 218.96 28.57, 243.84 -0.04 M184.13 68.64 C200.03 50.36, 215.92 32.07, 243.84 -0.04 M194.76 68.61 C218.61 41.17, 242.46 13.74, 254.47 -0.07 M194.76 68.61 C209.54 51.61, 224.31 34.61, 254.47 -0.07 M205.39 68.57 C226.38 44.43, 247.37 20.28, 265.1 -0.11 M205.39 68.57 C224.61 46.47, 243.82 24.36, 265.1 -0.11 M216.02 68.54 C234.06 47.79, 252.1 27.04, 275.73 -0.14 M216.02 68.54 C230.54 51.84, 245.06 35.14, 275.73 -0.14 M226.65 68.5 C244.63 47.82, 262.61 27.14, 286.36 -0.18 M226.65 68.5 C242.08 50.76, 257.5 33.02, 286.36 -0.18 M237.29 68.47 C254.69 48.44, 272.1 28.41, 296.99 -0.21 M237.29 68.47 C258.8 43.72, 280.31 18.98, 296.99 -0.21 M247.92 68.43 C258.19 56.61, 268.47 44.79, 297.78 11.08 M247.92 68.43 C259.96 54.58, 272 40.72, 297.78 11.08 M258.55 68.4 C272.87 51.92, 287.2 35.43, 297.91 23.12 M258.55 68.4 C272.2 52.69, 285.86 36.98, 297.91 23.12 M269.18 68.36 C279.8 56.14, 290.42 43.92, 298.04 35.16 M269.18 68.36 C275.72 60.83, 282.27 53.3, 298.04 35.16 M279.81 68.33 C285.34 61.96, 290.87 55.6, 298.18 47.2 M279.81 68.33 C286.97 60.08, 294.14 51.84, 298.18 47.2 M290.44 68.29 C292.05 66.43, 293.67 64.57, 297.65 59.99 M290.44 68.29 C292.3 66.15, 294.16 64.01, 297.65 59.99" stroke="#e9ecef" stroke-width="1" fill="none"></path><path d="M0 0 C107.05 0, 214.1 0, 297.51 0 M297.51 0 C297.51 18.9, 297.51 37.8, 297.51 68.55 M297.51 68.55 C193.1 68.55, 88.69 68.55, 0 68.55 M0 68.55 C0 45.73, 0 22.92, 0 0" stroke="#343a40" stroke-width="2.5" fill="none" stroke-dasharray="8 10"></path></g><g transform="translate(379.0990497525074 592.2727281646887) rotate(0 134.765625 24)"><text x="134.765625" y="0" font-family="Cascadia, Segoe UI Emoji" font-size="20px" fill="#343a40" text-anchor="middle" style="white-space: pre;" direction="ltr" dominant-baseline="text-before-edge">ELT Hooks "naked" stubs</text><text x="134.765625" y="24" font-family="Cascadia, Segoe UI Emoji" font-size="20px" fill="#343a40" text-anchor="middle" style="white-space: pre;" direction="ltr" dominant-baseline="text-before-edge">(object files)</text></g><g stroke-linecap="round"><g transform="translate(150.5045274209533 662.6384920692155) rotate(0 0.5 36.5)"><path d="M-0.67 0.28 C-0.56 12.42, 0.3 61.27, 0.55 73.58 M1.18 -0.62 C1.1 11.1, -0.43 59.6, -0.63 71.76" stroke="#1e1e1e" stroke-width="2" fill="none"></path></g><g transform="translate(150.5045274209533 662.6384920692155) rotate(0 0.5 36.5)"><path d="M-8.6 48.06 C-5.66 54.25, -2.85 61.59, -0.63 71.76 M-8.6 48.06 C-6.35 56.84, -2.11 65.91, -0.63 71.76" stroke="#1e1e1e" stroke-width="2" fill="none"></path></g><g transform="translate(150.5045274209533 662.6384920692155) rotate(0 0.5 36.5)"><path d="M8.5 48.49 C6.46 54.45, 4.3 61.67, -0.63 71.76 M8.5 48.49 C4.04 57.11, 1.58 66.01, -0.63 71.76" stroke="#1e1e1e" stroke-width="2" fill="none"></path></g></g><mask></mask><g stroke-linecap="round" transform="translate(10 746) rotate(0 148.75705475250743 34.272728164688715)"><path d="M0 0 C0 0, 0 0, 0 0 M0 0 C0 0, 0 0, 0 0 M0.13 12.04 C3.78 7.85, 7.42 3.66, 10.63 -0.03 M0.13 12.04 C3.6 8.06, 7.06 4.07, 10.63 -0.03 M0.27 24.08 C5.63 17.92, 10.98 11.75, 21.26 -0.07 M0.27 24.08 C6.55 16.85, 12.84 9.62, 21.26 -0.07 M-0.26 36.88 C9.56 25.58, 19.38 14.29, 31.89 -0.1 M-0.26 36.88 C12.21 22.53, 24.68 8.19, 31.89 -0.1 M-0.12 48.92 C11.95 35.03, 24.03 21.14, 42.52 -0.14 M-0.12 48.92 C13.14 33.66, 26.4 18.41, 42.52 -0.14 M0.01 60.96 C20.35 37.56, 40.69 14.16, 53.15 -0.17 M0.01 60.96 C19.42 38.63, 38.83 16.3, 53.15 -0.17 M4.08 68.47 C16.24 54.48, 28.41 40.48, 63.78 -0.21 M4.08 68.47 C20.85 49.18, 37.62 29.88, 63.78 -0.21 M14.71 68.44 C29.51 51.41, 44.32 34.38, 74.41 -0.24 M14.71 68.44 C37.1 42.68, 59.49 16.93, 74.41 -0.24 M25.34 68.4 C44.22 46.68, 63.11 24.95, 85.04 -0.28 M25.34 68.4 C37.54 54.37, 49.74 40.33, 85.04 -0.28 M35.97 68.37 C48.25 54.24, 60.53 40.12, 95.67 -0.31 M35.97 68.37 C55.02 46.45, 74.07 24.54, 95.67 -0.31 M46.6 68.33 C64.86 47.32, 83.13 26.32, 106.3 -0.34 M46.6 68.33 C65.42 46.68, 84.24 25.03, 106.3 -0.34 M57.23 68.3 C74.74 48.16, 92.24 28.02, 116.27 0.38 M57.23 68.3 C80.17 41.91, 103.11 15.52, 116.27 0.38 M67.86 68.26 C88.15 44.92, 108.44 21.59, 126.91 0.34 M67.86 68.26 C90.69 42, 113.52 15.73, 126.91 0.34 M78.49 68.23 C101.93 41.27, 125.36 14.31, 137.54 0.31 M78.49 68.23 C99.95 43.55, 121.4 18.87, 137.54 0.31 M89.12 68.2 C111.94 41.95, 134.76 15.7, 148.17 0.27 M89.12 68.2 C102.75 52.52, 116.37 36.85, 148.17 0.27 M99.09 68.92 C118.17 46.97, 137.24 25.03, 158.8 0.24 M99.09 68.92 C117.77 47.43, 136.45 25.94, 158.8 0.24 M109.72 68.88 C126.28 49.83, 142.84 30.78, 169.43 0.2 M109.72 68.88 C133.53 41.5, 157.33 14.12, 169.43 0.2 M120.35 68.85 C139.01 47.38, 157.67 25.92, 180.06 0.17 M120.35 68.85 C137.98 48.57, 155.61 28.29, 180.06 0.17 M130.98 68.81 C145.63 51.97, 160.27 35.13, 190.69 0.13 M130.98 68.81 C147.74 49.53, 164.5 30.25, 190.69 0.13 M141.61 68.78 C163.14 44.02, 184.66 19.26, 201.32 0.1 M141.61 68.78 C157 51.08, 172.39 33.38, 201.32 0.1 M152.24 68.74 C164.48 54.67, 176.71 40.6, 211.95 0.06 M152.24 68.74 C164.56 54.58, 176.87 40.42, 211.95 0.06 M162.87 68.71 C179.81 49.23, 196.74 29.76, 222.58 0.03 M162.87 68.71 C182.98 45.58, 203.08 22.46, 222.58 0.03 M173.5 68.67 C188.85 51.02, 204.2 33.36, 233.21 0 M173.5 68.67 C194.01 45.08, 214.52 21.49, 233.21 0 M184.13 68.64 C198.35 52.29, 212.56 35.94, 243.84 -0.04 M184.13 68.64 C205.49 44.08, 226.84 19.52, 243.84 -0.04 M194.76 68.61 C217.96 41.92, 241.15 15.24, 254.47 -0.07 M194.76 68.61 C206.71 54.86, 218.65 41.12, 254.47 -0.07 M205.39 68.57 C218.3 53.73, 231.2 38.88, 265.1 -0.11 M205.39 68.57 C225.39 45.57, 245.39 22.57, 265.1 -0.11 M216.02 68.54 C238.22 43.01, 260.41 17.47, 275.73 -0.14 M216.02 68.54 C235.27 46.39, 254.52 24.25, 275.73 -0.14 M226.65 68.5 C247.3 44.75, 267.95 21, 286.36 -0.18 M226.65 68.5 C248.87 42.94, 271.09 17.39, 286.36 -0.18 M237.29 68.47 C253.13 50.24, 268.98 32.01, 296.99 -0.21 M237.29 68.47 C260.93 41.26, 284.58 14.06, 296.99 -0.21 M247.92 68.43 C267.42 45.99, 286.93 23.56, 297.78 11.08 M247.92 68.43 C265.96 47.68, 284 26.92, 297.78 11.08 M258.55 68.4 C270.91 54.18, 283.27 39.96, 297.91 23.12 M258.55 68.4 C272.16 52.74, 285.77 37.08, 297.91 23.12 M269.18 68.36 C276.46 59.99, 283.74 51.61, 298.04 35.16 M269.18 68.36 C277.43 58.87, 285.68 49.38, 298.04 35.16 M279.81 68.33 C284.36 63.09, 288.92 57.85, 298.18 47.2 M279.81 68.33 C284.12 63.36, 288.44 58.39, 298.18 47.2 M290.44 68.29 C292.35 66.1, 294.26 63.9, 297.65 59.99 M290.44 68.29 C292.71 65.68, 294.98 63.07, 297.65 59.99" stroke="#e9ecef" stroke-width="1" fill="none"></path><path d="M0 0 C66.97 0, 133.93 0, 297.51 0 M0 0 C104.87 0, 209.73 0, 297.51 0 M297.51 0 C297.51 20.06, 297.51 40.12, 297.51 68.55 M297.51 0 C297.51 18.22, 297.51 36.44, 297.51 68.55 M297.51 68.55 C234.86 68.55, 172.21 68.55, 0 68.55 M297.51 68.55 C188.17 68.55, 78.83 68.55, 0 68.55 M0 68.55 C0 42.83, 0 17.11, 0 0 M0 68.55 C0 43.36, 0 18.17, 0 0" stroke="#343a40" stroke-width="2" fill="none"></path></g><g transform="translate(76.72580475250743 768.2727281646887) rotate(0 82.03125 12)"><text x="82.03125" y="0" font-family="Cascadia, Segoe UI Emoji" font-size="20px" fill="#343a40" text-anchor="middle" style="white-space: pre;" direction="ltr" dominant-baseline="text-before-edge">MyProfiler.dll</text></g><g stroke-linecap="round" transform="translate(736.7187311111111 526.8585863045665) rotate(0 136.4514993206982 82.82828372024426)"><path d="M0 0 C65.7 0, 131.39 0, 272.9 0 M0 0 C107.81 0, 215.63 0, 272.9 0 M272.9 0 C272.9 46.62, 272.9 93.25, 272.9 165.66 M272.9 0 C272.9 63.3, 272.9 126.59, 272.9 165.66 M272.9 165.66 C194.97 165.66, 117.05 165.66, 0 165.66 M272.9 165.66 C181.33 165.66, 89.75 165.66, 0 165.66 M0 165.66 C0 113.01, 0 60.37, 0 0 M0 165.66 C0 129.28, 0 92.9, 0 0" stroke="#be4bdb" stroke-width="2" fill="none"></path></g><g transform="translate(748.4757858636185 584.1313144692552) rotate(0 111.328125 60)"><text x="0" y="0" font-family="Cascadia, Segoe UI Emoji" font-size="20px" fill="#1e1e1e" text-anchor="start" style="white-space: pre;" direction="ltr" dominant-baseline="text-before-edge">EnterNaked3WithInfo</text><text x="0" y="24" font-family="Cascadia, Segoe UI Emoji" font-size="20px" fill="#1e1e1e" text-anchor="start" style="white-space: pre;" direction="ltr" dominant-baseline="text-before-edge">LeaveNaked</text><text x="0" y="48" font-family="Cascadia, Segoe UI Emoji" font-size="20px" fill="#1e1e1e" text-anchor="start" style="white-space: pre;" direction="ltr" dominant-baseline="text-before-edge">TailcallNaked</text><text x="0" y="72" font-family="Cascadia, Segoe UI Emoji" font-size="20px" fill="#1e1e1e" text-anchor="start" style="white-space: pre;" direction="ltr" dominant-baseline="text-before-edge">...</text><text x="0" y="96" font-family="Cascadia, Segoe UI Emoji" font-size="20px" fill="#1e1e1e" text-anchor="start" style="white-space: pre;" direction="ltr" dominant-baseline="text-before-edge"></text></g><g stroke-linecap="round" transform="translate(737.0868969747296 527.9393948313553) rotate(0 47.77777777777783 18.888888888888857)"><path d="M0 0 C0 0, 0 0, 0 0 M0 0 C0 0, 0 0, 0 0 M0.13 12.04 C1.46 7.34, 6.48 3.78, 10.63 -0.03 M0.13 12.04 C2.74 8.39, 6.4 3.96, 10.63 -0.03 M0.27 24.08 C3.87 17.49, 7.98 12.25, 21.26 -0.07 M0.27 24.08 C7.93 15.12, 17.48 4.21, 21.26 -0.07 M-0.26 36.88 C9.07 25.99, 20.82 15.92, 31.89 -0.1 M-0.26 36.88 C8.33 27.1, 17.72 15.93, 31.89 -0.1 M9.72 37.6 C19.29 26.18, 28.52 18.61, 42.52 -0.14 M9.72 37.6 C19.15 27.27, 28.43 16.05, 42.52 -0.14 M20.35 37.56 C26.74 30.94, 35.93 18.51, 53.15 -0.17 M20.35 37.56 C31.45 25.01, 41.52 13.2, 53.15 -0.17 M30.32 38.28 C43.18 24.46, 54.07 11.54, 63.78 -0.21 M30.32 38.28 C40.09 27.48, 49.47 17.57, 63.78 -0.21 M40.95 38.25 C52.37 27.46, 60.51 14.66, 74.41 -0.24 M40.95 38.25 C47.96 30.92, 54.65 22.82, 74.41 -0.24 M51.58 38.21 C59.98 31.44, 66.2 23.84, 85.04 -0.28 M51.58 38.21 C58.98 30.03, 66.81 20.16, 85.04 -0.28 M62.21 38.18 C76.18 22.56, 88.55 6.73, 95.67 -0.31 M62.21 38.18 C74.86 22.45, 87.86 7.02, 95.67 -0.31 M72.84 38.15 C81.49 28.62, 91.02 19.14, 96.46 10.98 M72.84 38.15 C79.53 30.12, 85.91 23.71, 96.46 10.98 M83.47 38.11 C87.62 33.23, 93.99 26.94, 95.94 23.77 M83.47 38.11 C87.53 34.7, 90.91 29.44, 95.94 23.77 M94.1 38.08 C94.77 37.54, 95.57 36.46, 96.07 35.81 M94.1 38.08 C94.66 37.6, 94.96 36.84, 96.07 35.81" stroke="#f3f0ff" stroke-width="1" fill="none"></path><path d="M0 0 C26.98 -0.66, 49.33 -2.37, 95.56 0 M0 0 C18.99 0.78, 38.53 -0.32, 95.56 0 M95.56 0 C96.04 12.08, 96.93 23.76, 95.56 37.78 M95.56 0 C95.05 11.57, 95.25 22.96, 95.56 37.78 M95.56 37.78 C67.98 37.17, 37.55 38.48, 0 37.78 M95.56 37.78 C67.54 37.94, 40.43 38.12, 0 37.78 M0 37.78 C0.36 23.43, 0.62 9.41, 0 0 M0 37.78 C-1.28 23.73, -0.61 7.89, 0 0" stroke="#be4bdb" stroke-width="2" fill="none"></path></g><g transform="translate(742.0868969747296 534.8282837202441) rotate(0 41.015625 12)"><text x="0" y="0" font-family="Cascadia, Segoe UI Emoji" font-size="20px" fill="#9c36b5" text-anchor="start" style="white-space: pre;" direction="ltr" dominant-baseline="text-before-edge">C++/ASM</text></g><g stroke-linecap="round"><g transform="translate(737.4842958917286 610.3086167302343) rotate(0 -35.80381 0.4058382153793332)"><path d="M-0.81 -1.08 C-12.75 -0.92, -60.07 -0.35, -71.78 -0.01" stroke="#1e1e1e" stroke-width="2.5" fill="none" stroke-dasharray="8 10"></path></g><g transform="translate(737.4842958917286 610.3086167302343) rotate(0 -35.80381 0.4058382153793332)"><path d="M-48.46 -9.01 C-56.99 -6.89, -63.23 -3.18, -71.78 -0.01" stroke="#1e1e1e" stroke-width="2.5" fill="none"></path></g><g transform="translate(737.4842958917286 610.3086167302343) rotate(0 -35.80381 0.4058382153793332)"><path d="M-48.13 8.09 C-56.62 5.32, -62.96 4.14, -71.78 -0.01" stroke="#1e1e1e" stroke-width="2.5" fill="none"></path></g></g><mask></mask><g transform="translate(850.1986594191744 535.3282844980222) rotate(0 45.9423828125 11.5)"><text x="0" y="0" font-family="Helvetica, Segoe UI Emoji" font-size="20px" fill="#1e1e1e" text-anchor="start" style="white-space: pre;" direction="ltr" dominant-baseline="text-before-edge">ELTHooks</text></g></svg>